<svg width="28" height="28" viewBox="0 0 28 28" fill="none" xmlns="http://www.w3.org/2000/svg">
<path d="M13.9999 16.6666C13.2635 16.6666 12.6666 16.0697 12.6666 15.3333V7.33331C12.6666 6.59693 13.2635 5.99998 13.9999 5.99998C14.7363 5.99998 15.3333 6.59693 15.3333 7.33331V15.3333C15.3333 16.0697 14.7363 16.6666 13.9999 16.6666Z" fill="#BE3A31"/>
<path d="M13.9999 19.3333C13.2635 19.3333 12.6666 19.9303 12.6666 20.6666C12.6666 21.403 13.2635 22 13.9999 22C14.7363 22 15.3333 21.403 15.3333 20.6666C15.3333 19.9303 14.7363 19.3333 13.9999 19.3333Z" fill="#BE3A31"/>
<path fill-rule="evenodd" clip-rule="evenodd" d="M13.9999 0.666646C6.63612 0.666646 0.666584 6.63618 0.666584 14C0.666584 21.3638 6.63612 27.3333 13.9999 27.3333C21.3637 27.3333 27.3333 21.3638 27.3333 14C27.3333 6.63618 21.3637 0.666646 13.9999 0.666646ZM13.9999 3.33331C8.10888 3.33331 3.33325 8.10894 3.33325 14C3.33325 19.891 8.10888 24.6666 13.9999 24.6666C19.891 24.6666 24.6666 19.891 24.6666 14C24.6666 8.10894 19.891 3.33331 13.9999 3.33331Z" fill="#BE3A31"/>
</svg>
